<svg width="405" height="153" viewBox="0 0 405 153" fill="none" xmlns="http://www.w3.org/2000/svg">
<rect width="405" height="153" rx="76.5" fill="#825383"/>
<path d="M81.2812 58.125H81.25V83.5625C81.25 85.875 81.6771 87.2917 82.5312 87.8125C83.2604 88.25 84.7083 88.4688 86.875 88.4688C87.375 88.4688 87.9167 88.4583 88.5 88.4375H93.0938V96H83.0938C80.7812 96 78.8021 95.5417 77.1562 94.625C75.5104 93.7083 74.25 92.4792 73.375 90.9375C72.5208 89.3958 72.0938 87.6875 72.0938 85.8125V51.2188H93.0938V58.9688L81.2812 58.125ZM120.5 57.9375C120.583 58.2292 120.656 58.6458 120.719 59.1875C120.802 59.7083 120.844 60.1354 120.844 60.4688V86.5625C120.844 88.4375 120.406 90.1458 119.531 91.6875C118.656 93.2083 117.396 94.4271 115.75 95.3438C114.125 96.2604 112.146 96.7188 109.812 96.7188H106.719C104.406 96.7188 102.427 96.2604 100.781 95.3438C99.1354 94.4271 97.875 93.2083 97 91.6875C96.1458 90.1458 95.7188 88.4375 95.7188 86.5625V60.6562C95.7188 58.7812 96.1458 57.0833 97 55.5625C97.875 54.0208 99.1354 52.7917 100.781 51.875C102.427 50.9583 104.406 50.5 106.719 50.5H109.812C112.708 50.5 115.073 51.1979 116.906 52.5938C118.74 53.9688 119.938 55.75 120.5 57.9375ZM111.656 65.5938C111.656 63.6354 111.604 62.1146 111.5 61.0312C111.396 59.9479 111.104 59.1979 110.625 58.7812C110.167 58.3438 109.385 58.125 108.281 58.125C107.177 58.125 106.385 58.3438 105.906 58.7812C105.427 59.1979 105.135 59.9479 105.031 61.0312C104.927 62.1146 104.875 63.6354 104.875 65.5938V81.625C104.875 83.5833 104.927 85.1042 105.031 86.1875C105.135 87.2708 105.417 88.0312 105.875 88.4688C106.354 88.8854 107.156 89.0938 108.281 89.0938C109.406 89.0938 110.198 88.8854 110.656 88.4688C111.135 88.0312 111.417 87.2708 111.5 86.1875C111.604 85.1042 111.656 83.5833 111.656 81.625V65.5938ZM140.844 51.2188H150V96H140.844V73.4062L134.219 64.625V96H125.188V51.1562L134.031 51.1875L134.25 51.4375L140.844 60.1562V51.2188ZM175.938 58.9688L163.75 58.125V74.9375H175.938V82.6875L163.75 81.8438V96H154.562V82.6875L151.188 74.9375H154.562V51.2188H175.938V58.9688ZM195.5 57.4688L190.875 57.2812V89.4688L195.5 89.5625V96H178.406L175.688 90.1875L181.688 89.75V57.2812L178.406 57.4375L175.688 51.25L195.5 51.2188V57.4688ZM214.75 96.0938L211.656 84.3125C210.573 85.1042 209.542 85.8333 208.562 86.5V96H199.375V51.2188H212.688C215.021 51.2188 217 51.6771 218.625 52.5938C220.271 53.5104 221.531 54.7396 222.406 56.2812C223.281 57.8229 223.719 59.5312 223.719 61.4062V74.6875C222.49 75.8542 221.104 77.0625 219.562 78.3125L224.25 96.0938H214.75ZM208.562 58.7812V76.4375C210.812 75.0417 213.031 73.2708 215.219 71.125V66.3125C215.219 64.4792 215.177 63.0521 215.094 62.0312C215.031 61.0104 214.792 60.2708 214.375 59.8125C213.979 59.3333 213.323 59.0312 212.406 58.9062C211.635 58.8229 210.615 58.7812 209.344 58.7812H208.562ZM256.375 51.2188H267.562V96H258.375V60.625L252.438 67.1562V96H243.25V67.1562L237.312 60.625V96H228.156V51.2188H239.312L247.844 59.625L256.375 51.2188ZM283.375 51.2188H298.469V96H289.281V82.3438L281.562 81.8438H281.531V96H272.344V82.6875L268.969 74.9375H272.344V61.4062C272.344 59.5312 272.781 57.8229 273.656 56.2812C274.531 54.7396 275.781 53.5104 277.406 52.5938C279.052 51.6771 281.042 51.2188 283.375 51.2188ZM281.531 74.9375H289.281V58.7812H289.25C288.375 58.7396 287.583 58.7188 286.875 58.7188C284.917 58.7188 283.583 58.9062 282.875 59.2812C281.979 59.7604 281.531 61.1354 281.531 63.4062V74.9375ZM318.438 96.0938L315.344 84.3125C314.26 85.1042 313.229 85.8333 312.25 86.5V96H303.062V51.2188H316.375C318.708 51.2188 320.688 51.6771 322.312 52.5938C323.958 53.5104 325.219 54.7396 326.094 56.2812C326.969 57.8229 327.406 59.5312 327.406 61.4062V74.6875C326.177 75.8542 324.792 77.0625 323.25 78.3125L327.938 96.0938H318.438ZM312.25 58.7812V76.4375C314.5 75.0417 316.719 73.2708 318.906 71.125V66.3125C318.906 64.4792 318.865 63.0521 318.781 62.0312C318.719 61.0104 318.479 60.2708 318.062 59.8125C317.667 59.3333 317.01 59.0312 316.094 58.9062C315.323 58.8229 314.302 58.7812 313.031 58.7812H312.25Z" fill="white"/>
</svg>
